<svg width="945" height="495" viewBox="0 0 945 495" fill="none" xmlns="http://www.w3.org/2000/svg">
<g clip-path="url(#clip0_4166_1956)">
<rect width="945" height="495" fill="#E2F1FF"/>
<path d="M296.235 282.524L377.321 209.555C389.337 198.742 407.272 198.654 419.362 209.365C431.594 220.204 434.078 238.703 425.164 252.544L366.056 344.338L296.235 282.524Z" fill="#E37B4C"/>
<path d="M53.8735 405.002L79.9614 544.483C94.4457 587.309 132.305 615.966 174.897 616.309L178.389 642.407C232.148 642.839 367.813 573.207 371.709 515.855L385.058 318.865L227.315 295.141L53.8735 405.002Z" fill="#E37B4C"/>
<path d="M276.103 496.734L338.91 421.755C349.836 408.711 369.009 407.236 381.692 418.463L396.838 431.869C409.522 443.096 410.948 462.804 400.022 475.848L337.214 550.827L276.103 496.734Z" fill="#E37B4C"/>
<path d="M304.581 390.952L354.355 331.534C368.879 314.195 394.374 312.233 411.234 327.156C428.093 342.079 429.991 368.288 415.467 385.627L365.693 445.045C362.096 449.34 355.773 449.827 351.597 446.13L305.63 405.443C301.454 401.747 300.984 395.247 304.581 390.952Z" fill="#E37B4C"/>
<path d="M113.788 399.5L97.0813 420.742C96.0423 422.066 96.2324 423.991 97.4988 425.08C98.4589 425.891 99.7947 426.028 100.89 425.424L122.026 413.5L113.788 399.5Z" fill="#CB6942"/>
<path d="M340.797 40.3054L161.073 38.8594C135.798 38.656 115.145 59.5486 114.936 85.532L111.279 540.083C111.07 566.066 131.404 587.289 156.659 587.492L336.383 588.938C361.658 589.141 382.311 568.249 382.52 542.265L386.177 87.7143C386.386 61.7309 366.052 40.5086 340.797 40.3054Z" fill="black"/>
<path d="M367.147 538.357L370.743 91.3536C370.899 72.0299 355.785 56.2623 337.009 56.1112L164.607 54.7241C145.81 54.5729 130.465 70.1166 130.309 89.4192L126.713 536.423C126.558 555.746 141.65 571.514 160.447 571.665L332.85 573.052C351.626 573.203 366.991 557.681 367.147 538.357Z" fill="#3E5FFF"/>
<path d="M277.668 79.7795C280.678 79.8037 283.138 77.3149 283.163 74.2207C283.188 71.1265 280.768 68.5985 277.758 68.5742C274.748 68.55 272.288 71.0388 272.263 74.133C272.238 77.2272 274.658 79.7552 277.668 79.7795Z" fill="black"/>
<path d="M220.935 70.6753L258.673 70.979C260.174 70.991 261.398 72.2483 261.386 73.8128C261.373 75.3562 260.15 76.615 258.628 76.6027L220.89 76.2991C219.388 76.287 218.164 75.0297 218.177 73.4652C218.19 71.9218 219.413 70.6631 220.935 70.6753Z" fill="black"/>
<path d="M400.109 475.488C414.085 458.813 412.272 433.638 396.036 419.278L393.688 417.187C377.474 402.827 352.984 404.702 339.008 421.399C338.426 422.092 337.865 422.806 337.345 423.521C321.02 445.886 338.369 477.783 365.525 476.775L400.109 475.488Z" fill="#E37B4C"/>
<path d="M714.908 398.991L873.167 412.054L837.387 327.917L745.151 327.917C719.689 326.895 697.6 345.278 693.96 370.487C691.998 384.097 701.317 396.778 714.908 398.991Z" fill="#E47B4C"/>
<path d="M414.616 385.091C428.592 368.415 426.779 343.24 410.544 328.88L408.195 326.789C391.98 312.43 367.491 314.304 353.515 331.001C352.933 331.694 352.372 332.408 351.852 333.123C335.527 355.488 352.876 387.385 380.032 386.377L414.616 385.091Z" fill="#E37B4C"/>
<path fill-rule="evenodd" clip-rule="evenodd" d="M189.519 218.696L186.285 309.093C185.136 341.204 210.237 368.167 242.348 369.316C261.189 369.99 278.258 361.628 289.38 348.115C290.45 346.814 292.065 346.06 293.746 346.181L318.262 347.935C321.713 348.182 323.841 351.801 322.145 354.816C306.319 382.943 275.718 401.463 241.242 400.23C192.057 398.47 153.612 357.172 155.371 307.987L158.606 217.59C160.365 168.405 201.664 129.96 250.849 131.72C296.75 133.362 333.298 169.441 336.543 214.228C336.752 217.117 334.291 219.431 331.402 219.224L310.088 217.7C307.606 217.522 305.665 215.522 305.337 213.055C301.673 185.43 278.524 163.663 249.743 162.633C217.631 161.484 190.668 186.585 189.519 218.696Z" fill="#3D3D3D"/>
<path d="M81.0718 447.423C44.8581 418.694 41.3092 363.862 73.4778 330.418L110.832 291.583C115.187 287.051 122.143 286.557 127.068 290.423C149.325 307.94 154.165 340.37 138.056 363.964L81.0718 447.423Z" fill="#E37B4C"/>
<path d="M474.659 299.513C474.659 293.543 479.498 288.703 485.468 288.703L669.693 288.703V310.322H485.468C479.498 310.322 474.659 305.483 474.659 299.513V299.513Z" fill="#3D3D3D"/>
<path d="M522.51 301.486L522.51 336.747C522.51 342.717 517.671 347.557 511.701 347.557V347.557C505.731 347.557 500.891 342.717 500.891 336.747L500.891 301.486L522.51 301.486Z" fill="#3D3D3D"/>
<path d="M559.6 301.486L559.6 336.747C559.6 342.717 554.76 347.557 548.79 347.557V347.557C542.82 347.557 537.981 342.717 537.981 336.747L537.981 301.486L559.6 301.486Z" fill="#3D3D3D"/>
<path fill-rule="evenodd" clip-rule="evenodd" d="M705.814 330.421C722.202 330.421 735.488 317.135 735.488 300.747C735.488 284.358 722.202 271.073 705.814 271.073C689.425 271.073 676.14 284.358 676.14 300.747C676.14 317.135 689.425 330.421 705.814 330.421ZM705.814 351.064C733.603 351.064 756.131 328.536 756.131 300.747C756.131 272.958 733.603 250.43 705.814 250.43C678.024 250.43 655.497 272.958 655.497 300.747C655.497 328.536 678.024 351.064 705.814 351.064Z" fill="#3D3D3D"/>
<path d="M831.885 209.572L761.372 185.57L727.088 173.863C714.64 169.717 705.821 159.624 702.562 147.737C700.866 141.533 700.791 134.756 702.59 128.16C706.029 115.499 718.668 107.835 731.189 110.46C732.189 110.665 733.073 110.932 733.957 111.2L734.31 111.306L915.604 169.737C922.623 172.051 834.246 210.382 831.885 209.572Z" fill="#CC6942"/>
<path d="M781.092 223.463L717.684 217.141L707.017 216.041L670.975 212.39C657.849 211.126 646.992 203.312 641.192 192.491C638.168 186.85 636.579 180.291 636.734 173.392C637.122 160.291 647.757 149.996 660.488 149.693C661.364 149.668 662.416 149.697 663.354 149.787L663.707 149.894L882.06 165.49C889.33 166.336 783.613 223.742 781.092 223.463Z" fill="#E47B4C"/>
<path d="M756.231 154.688C755.355 154.713 750.717 156.013 747.682 156.158C742.312 156.369 730.947 159.496 730.947 159.496C723.476 161.871 717.425 166.893 711.735 172.314C711.735 172.314 685.79 194.964 665.579 211.725C665.579 211.725 679.367 213.671 686.559 213.817L743.018 185.333L871.207 178.421L887.972 163.803L756.231 154.688Z" fill="#CC6942"/>
<path d="M758.226 235.273C758.226 235.273 760.915 231.165 769.139 232.685L816.473 239.816C848.207 244.597 869.351 275.13 862.664 306.517C861.126 313.736 851.575 324.456 839.238 325.69L751.64 328.157L777.661 380.094L858.379 409.574C865.852 411.66 873.597 412.606 881.353 412.381L1095.82 406.139L1123.32 261.429L1093.12 255.683C1077.79 252.788 1063.15 247.594 1049.44 240.269L922.288 172.529C916.119 169.315 909.399 167.285 902.545 166.661C902.545 166.661 783.4 162.798 759.423 164.239C759.423 164.239 748.72 163.9 742.947 166.402C742.54 166.472 742.425 166.533 742.425 166.533C734.839 168.969 728.002 173.079 722.312 178.5L658.919 238.561C648.107 248.802 648.004 265.752 658.697 276.025C674.079 290.899 698.451 291.025 714.164 276.378C714.164 276.378 750.312 242.627 758.226 235.273Z" fill="#E47B4C"/>
<path d="M205.22 438.253C205.457 437.27 206.914 437.175 207.234 438.123L209.522 444.228C209.629 444.544 209.947 444.806 210.295 444.864L217.009 446.204C218.056 446.419 218.142 447.745 217.131 448.093L210.646 450.288C210.309 450.39 210.027 450.691 209.962 451.018L208.48 457.367C208.242 458.351 206.785 458.445 206.466 457.498L204.177 451.392C204.07 451.076 203.752 450.815 203.404 450.756L196.69 449.416C195.644 449.201 195.558 447.876 196.568 447.528L203.053 445.333C203.391 445.23 203.672 444.93 203.737 444.603L205.22 438.253Z" fill="#FFBD6E"/>
<path d="M171.554 404.458C172.052 402.767 174.457 402.771 174.879 404.463L177.973 415.388C178.114 415.952 178.608 416.446 179.174 416.588L190.061 419.706C191.758 420.201 191.754 422.526 190.056 423.017L179.158 426.1C178.592 426.24 178.096 426.732 177.954 427.295L174.825 438.211C174.327 439.901 171.922 439.897 171.5 438.206L168.406 427.28C168.265 426.716 167.771 426.222 167.205 426.08L156.318 422.963C154.621 422.467 154.625 420.142 156.323 419.652L167.22 416.569C167.786 416.429 168.282 415.937 168.425 415.373L171.554 404.458Z" fill="#FFBD6E"/>
<path d="M345.417 329.088C338.843 378.909 292.84 413.93 235.346 406.343C177.851 398.756 147.987 353.724 154.561 303.903C161.136 254.081 201.659 218.338 259.154 225.925C316.648 233.512 351.992 279.267 345.417 329.088Z" fill="#E59A48"/>
<ellipse cx="242.534" cy="315.512" rx="90.2393" ry="90.9913" transform="rotate(7.51737 242.534 315.512)" fill="#FFBD6E"/>
<ellipse cx="241.69" cy="316.159" rx="69.9355" ry="70.6875" transform="rotate(7.51737 241.69 316.159)" fill="white" fill-opacity="0.5"/>
<circle cx="240.736" cy="304.542" r="17.4943" transform="rotate(-0.0947255 240.736 304.542)" fill="#E49948"/>
<rect x="231" y="302.034" width="19.8569" height="44.0597" rx="9.92846" transform="rotate(-0.0947255 231 302.034)" fill="#E49948"/>
</g>
<defs>
<clipPath id="clip0_4166_1956">
<rect width="945" height="495" fill="white"/>
</clipPath>
</defs>
</svg>
