<?xml version="1.0" standalone="no"?>
<!DOCTYPE svg PUBLIC "-//W3C//DTD SVG 20010904//EN"
 "http://www.w3.org/TR/2001/REC-SVG-20010904/DTD/svg10.dtd">
<svg version="1.0" xmlns="http://www.w3.org/2000/svg"
 width="260.000000pt" height="260.000000pt" viewBox="0 0 260.000000 260.000000"
 preserveAspectRatio="xMidYMid meet">
<metadata>
Created by potrace 1.14, written by Peter Selinger 2001-2017
</metadata>
<g transform="translate(0.000000,260.000000) scale(0.100000,-0.100000)"
fill="#000000" stroke="none">
<path d="M506 2579 c4 -8 -7 -10 -39 -7 -26 3 -51 0 -58 -6 -9 -8 -10 -8 -5 2
4 7 1 12 -8 12 -9 0 -16 -6 -16 -12 0 -8 -3 -9 -8 -3 -4 6 -38 9 -77 9 -99 -2
-100 -2 -122 -22 -18 -15 -21 -29 -20 -100 0 -45 4 -85 8 -88 5 -3 4 -14 -1
-25 -6 -10 -7 -19 -2 -19 4 0 7 -19 7 -42 -1 -24 3 -49 8 -55 6 -9 5 -13 -2
-13 -7 0 -9 -5 -5 -11 4 -6 8 -30 9 -53 2 -22 6 -79 10 -126 4 -47 8 -102 8
-122 1 -21 5 -38 9 -38 4 0 3 -11 -2 -24 -5 -13 -6 -26 -3 -29 3 -3 7 -22 9
-41 1 -20 6 -41 9 -46 3 -6 1 -10 -5 -10 -6 0 -9 -4 -6 -8 3 -5 7 -32 10 -60
3 -29 8 -57 11 -62 3 -6 1 -10 -5 -10 -6 0 -8 -5 -4 -12 8 -12 10 -31 15 -130
1 -27 7 -48 13 -48 7 0 7 -3 1 -8 -13 -9 -18 -32 -7 -32 8 0 7 -70 -2 -112 -4
-16 -8 -41 -10 -57 -2 -15 -6 -33 -10 -40 -4 -6 -1 -11 6 -11 10 0 10 -2 1 -8
-7 -4 -14 -28 -17 -52 -2 -25 -7 -56 -10 -70 -6 -24 -14 -70 -19 -115 -1 -11
-5 -24 -8 -30 -2 -5 -4 -27 -4 -47 0 -21 -2 -38 -5 -38 -3 0 -7 -15 -9 -32 -4
-45 -9 -83 -11 -83 -1 0 -3 -13 -5 -30 -4 -44 -9 -59 -20 -67 -6 -5 -5 -8 4
-8 9 0 10 -4 4 -13 -6 -6 -9 -20 -8 -29 2 -10 0 -18 -3 -18 -4 0 -8 -15 -9
-33 -2 -36 -10 -102 -13 -102 -1 0 -3 -11 -5 -25 -4 -27 -13 -86 -21 -135 -16
-92 -14 -117 8 -136 11 -11 26 -19 32 -20 78 -5 146 -3 146 6 0 7 3 7 8 0 10
-14 105 -14 114 -1 5 7 8 7 8 1 0 -14 110 -14 110 -1 0 7 3 8 8 1 10 -14 105
-14 114 -1 5 7 8 7 8 1 0 -14 110 -14 110 -1 0 7 3 8 8 1 10 -14 105 -14 114
-1 5 7 8 7 8 1 0 -5 16 -10 35 -10 19 0 35 2 35 5 0 4 17 12 38 20 44 16 564
22 596 7 13 -6 16 -6 12 2 -4 6 -3 11 3 11 5 0 13 -5 16 -10 4 -6 11 -8 16 -4
5 3 21 -2 35 -11 20 -13 56 -17 185 -18 87 -1 159 2 159 6 0 5 5 5 11 1 17
-10 109 -12 109 -2 0 5 5 6 11 2 17 -10 109 -12 109 -2 0 5 5 6 11 2 17 -10
109 -12 109 -2 0 5 5 6 11 2 19 -11 109 -12 109 0 0 6 5 4 10 -4 7 -11 10 -11
10 -2 0 7 5 10 11 7 5 -4 19 1 30 11 16 15 20 29 17 77 -1 32 -5 60 -8 62 -3
2 -7 19 -8 37 -3 34 -9 73 -12 73 -1 0 -3 11 -4 25 -2 14 -6 43 -10 65 -5 22
-10 54 -12 70 -6 51 -13 90 -14 90 -1 0 -4 14 -6 30 -6 55 -10 81 -16 90 -2 6
-4 22 -3 38 1 15 -2 27 -6 27 -5 0 -5 7 -2 17 5 12 3 14 -8 8 -12 -8 -12 -6 0
8 7 9 10 17 5 17 -5 0 -10 12 -10 27 -2 52 -14 114 -25 135 -8 15 -8 19 0 14
6 -4 11 -3 11 3 0 5 -5 13 -10 16 -6 4 -8 10 -5 15 3 5 1 19 -6 31 -9 17 -8
20 2 14 8 -6 10 -4 3 6 -10 17 -14 33 -17 81 -1 21 -4 38 -7 38 -3 0 -6 19 -8
42 -1 23 -7 47 -13 54 -7 9 -7 19 1 33 8 16 8 21 -2 21 -8 0 -9 3 -3 8 15 11
17 52 2 52 -9 0 -9 2 -1 8 10 6 25 106 24 160 0 6 0 18 0 25 0 57 14 153 23
159 9 6 9 8 0 8 -12 0 -12 44 0 56 3 3 2 16 -3 29 -5 13 -6 26 -2 30 4 4 8 23
8 43 1 20 3 37 4 37 2 0 10 124 13 202 1 35 4 63 7 63 3 0 5 21 4 48 0 26 4
53 9 60 6 8 5 12 -4 12 -9 0 -10 3 -4 8 6 4 11 27 12 52 4 100 5 145 3 155 -1
6 -2 13 -1 18 0 4 -5 7 -13 7 -8 0 -16 4 -18 9 -5 14 -75 20 -89 7 -9 -8 -10
-8 -6 0 4 7 0 15 -9 18 -9 4 -13 2 -8 -5 4 -8 -7 -10 -39 -7 -26 3 -51 0 -58
-6 -9 -8 -10 -8 -6 0 4 7 0 15 -9 18 -9 4 -13 2 -8 -5 4 -8 -7 -10 -39 -7 -26
3 -51 0 -58 -6 -9 -8 -10 -8 -6 0 4 7 0 15 -9 18 -9 4 -13 2 -8 -5 4 -8 -7
-10 -39 -7 -26 3 -51 0 -58 -6 -9 -8 -10 -8 -6 0 4 7 0 15 -9 18 -9 4 -13 2
-8 -5 4 -8 -7 -10 -39 -7 -26 3 -51 0 -58 -6 -9 -8 -10 -8 -6 0 4 7 0 15 -9
18 -9 4 -13 2 -8 -5 4 -8 -7 -10 -39 -7 -26 3 -51 0 -58 -6 -9 -8 -10 -8 -6 0
4 7 0 15 -9 18 -9 4 -13 2 -8 -5 4 -8 -7 -10 -39 -7 -26 3 -51 0 -58 -6 -9 -8
-10 -8 -6 0 4 7 0 15 -9 18 -9 4 -13 2 -8 -5 4 -8 -7 -10 -39 -7 -26 3 -51 0
-58 -6 -9 -8 -10 -8 -6 0 4 7 0 15 -9 18 -9 4 -13 2 -8 -5 4 -8 -7 -10 -39 -7
-26 3 -51 0 -58 -6 -9 -8 -10 -8 -6 0 4 7 0 15 -9 18 -9 4 -13 2 -8 -5 4 -8
-7 -10 -39 -7 -26 3 -51 0 -58 -6 -9 -8 -10 -8 -6 0 4 7 0 15 -9 18 -9 4 -13
2 -8 -5 4 -8 -7 -10 -39 -7 -26 3 -51 0 -58 -6 -9 -8 -10 -8 -6 0 4 7 0 15 -9
18 -9 4 -13 2 -8 -5 4 -8 -7 -10 -39 -7 -26 3 -51 0 -58 -6 -9 -8 -10 -8 -6 0
4 7 0 15 -9 18 -9 4 -13 2 -8 -5 4 -8 -7 -10 -39 -7 -26 3 -51 0 -58 -6 -9 -8
-10 -8 -6 0 4 7 0 15 -9 18 -9 4 -13 2 -8 -5 4 -8 -7 -10 -39 -7 -26 3 -51 0
-58 -6 -9 -8 -10 -8 -6 0 4 7 0 15 -9 18 -9 4 -13 2 -8 -5 4 -8 -7 -10 -39 -7
-26 3 -51 0 -58 -6 -9 -8 -10 -8 -6 0 4 7 0 15 -9 18 -9 4 -13 2 -8 -5 4 -8
-7 -10 -39 -7 -26 3 -51 0 -58 -6 -9 -8 -10 -8 -6 0 4 7 0 15 -9 18 -9 4 -13
2 -8 -5z"/>
</g>
</svg>
